<svg xmlns="http://www.w3.org/2000/svg" viewBox="0 0 1260 360" role="img" aria-label="IaC multi-cuenta con StackSets">
  <rect width="1260" height="360" fill="#0f1218"/>
  <text x="34" y="40" fill="#f1b356" font-family="Arial, sans-serif" font-size="26" font-weight="700">IaC multi-cuenta con StackSets</text>
  <g font-family="Arial, sans-serif">
    <rect x="60" y="90" width="300" height="170" rx="22" fill="#152032" stroke="#8fc3ff"/>
    <text x="210" y="125" fill="#cfe6ff" font-size="24" text-anchor="middle">Cuenta central DevOps</text>
    <rect x="100" y="155" width="220" height="70" rx="16" fill="#17304a" stroke="#8fc3ff"/>
    <text x="210" y="195" fill="#fff" font-size="24" text-anchor="middle">CloudFormation</text>
    <text x="210" y="218" fill="#d6e8ff" font-size="15" text-anchor="middle">Template / change set</text>

    <rect x="470" y="120" width="280" height="110" rx="20" fill="#1a2f23" stroke="#9fe3b1"/>
    <text x="610" y="160" fill="#fff" font-size="24" text-anchor="middle">StackSets</text>
    <text x="610" y="188" fill="#dff5e6" font-size="15" text-anchor="middle">Service-managed permissions</text>

    <rect x="860" y="70" width="320" height="220" rx="22" fill="#22171a" stroke="#f1b356"/>
    <text x="1020" y="106" fill="#ffe0c0" font-size="24" text-anchor="middle">Organizations / OUs</text>
    <rect x="900" y="140" width="100" height="90" rx="14" fill="#2d2611" stroke="#f1d37a"/>
    <text x="950" y="185" fill="#fff" font-size="18" text-anchor="middle">Cuenta A</text>
    <rect x="1030" y="140" width="100" height="90" rx="14" fill="#2d2611" stroke="#f1d37a"/>
    <text x="1080" y="185" fill="#fff" font-size="18" text-anchor="middle">Cuenta B</text>
    <rect x="965" y="240" width="100" height="30" rx="10" fill="#17304a" stroke="#8fc3ff"/>
    <text x="1015" y="261" fill="#fff" font-size="14" text-anchor="middle">Region extra</text>
  </g>
  <path d="M360 175 H470 M750 175 H860" stroke="#9fd1ff" stroke-width="6" marker-end="url(#a)"/>
  <defs>
    <marker id="a" markerWidth="10" markerHeight="10" refX="8" refY="3" orient="auto">
      <path d="M0,0 L0,6 L9,3 z" fill="#9fd1ff"/>
    </marker>
  </defs>
</svg>
