<svg xmlns="http://www.w3.org/2000/svg" viewBox="0 0 1100 360" role="img" aria-label="Regional DR Route53 RDS">
  <rect width="1100" height="360" fill="#0f1218"/>
  <text x="35" y="42" fill="#f1b356" font-family="Arial, sans-serif" font-size="24" font-weight="700">Route 53 - Region primaria/secundaria - RDS replica</text>
  <rect x="455" y="70" width="190" height="70" rx="18" fill="#17304a" stroke="#8fc3ff"/>
  <text x="550" y="112" fill="#fff" font-family="Arial, sans-serif" font-size="24" text-anchor="middle">Route 53</text>
  <rect x="40" y="180" width="420" height="140" rx="22" fill="#152032" stroke="#8fc3ff"/>
  <text x="250" y="212" fill="#cfe6ff" font-family="Arial, sans-serif" font-size="22" text-anchor="middle">Region primaria</text>
  <rect x="90" y="240" width="130" height="55" rx="14" fill="#1a2f23" stroke="#9fe3b1"/><text x="155" y="273" fill="#fff" font-family="Arial, sans-serif" font-size="20" text-anchor="middle">ALB/ASG</text>
  <rect x="260" y="240" width="130" height="55" rx="14" fill="#3a2415" stroke="#f1b356"/><text x="325" y="273" fill="#fff" font-family="Arial, sans-serif" font-size="20" text-anchor="middle">RDS</text>
  <rect x="640" y="180" width="420" height="140" rx="22" fill="#22171a" stroke="#f1b356"/>
  <text x="850" y="212" fill="#ffe0c0" font-family="Arial, sans-serif" font-size="22" text-anchor="middle">Region secundaria</text>
  <rect x="690" y="240" width="130" height="55" rx="14" fill="#1a2f23" stroke="#9fe3b1"/><text x="755" y="273" fill="#fff" font-family="Arial, sans-serif" font-size="20" text-anchor="middle">Standby</text>
  <rect x="860" y="240" width="130" height="55" rx="14" fill="#17304a" stroke="#8fc3ff"/><text x="925" y="273" fill="#fff" font-family="Arial, sans-serif" font-size="18" text-anchor="middle">Read replica</text>
  <path d="M550 140 V180" stroke="#9fd1ff" stroke-width="6" marker-end="url(#a)"/>
  <path d="M390 265 H690" stroke="#9fd1ff" stroke-width="4" stroke-dasharray="8 8" marker-end="url(#a)"/>
  <text x="540" y="250" fill="#d4c8ae" font-family="Arial, sans-serif" font-size="15" text-anchor="middle">replicacion / failover</text>
  <defs><marker id="a" markerWidth="10" markerHeight="10" refX="8" refY="3" orient="auto"><path d="M0,0 L0,6 L9,3 z" fill="#9fd1ff"/></marker></defs>
</svg>
